<?xml version="1.0" standalone="no"?>
<!DOCTYPE svg PUBLIC "-//W3C//DTD SVG 20010904//EN"
 "http://www.w3.org/TR/2001/REC-SVG-20010904/DTD/svg10.dtd">
<svg version="1.0" xmlns="http://www.w3.org/2000/svg"
 width="114.000000pt" height="114.000000pt" viewBox="0 0 114.000000 114.000000"
 preserveAspectRatio="xMidYMid meet">
<metadata>
Created by potrace 1.14, written by Peter Selinger 2001-2017
</metadata>
<g transform="translate(0.000000,114.000000) scale(0.100000,-0.100000)"
fill="#000000" stroke="none">
<path d="M547 894 c-4 -4 -7 -153 -7 -331 l0 -323 25 0 25 0 -2 327 c-3 287
-5 328 -18 331 -9 1 -19 0 -23 -4z"/>
<path d="M20 776 c0 -18 6 -25 23 -28 22 -3 22 -4 22 -178 0 -174 0 -175 -22
-178 -17 -3 -23 -10 -23 -28 0 -24 1 -24 93 -24 128 1 168 15 196 68 18 34 21
57 21 162 1 105 -4 135 -21 156 -6 8 -8 14 -4 14 5 0 -4 11 -20 24 -35 30 -64
36 -176 36 -88 0 -89 0 -89 -24z m193 -37 c53 -14 64 -47 61 -179 -2 -128 0
-115 -25 -139 -24 -23 -118 -39 -128 -22 -5 8 -7 315 -2 344 2 10 50 9 94 -4z"/>
<path d="M818 788 c-3 -11 -2 -412 1 -441 1 -5 13 -7 28 -5 l28 3 -1 93 0 93
85 -3 86 -3 1 -80 c2 -109 1 -105 29 -105 27 0 29 9 25 125 -2 73 -2 74 -17
79 -18 7 -16 33 3 44 19 10 29 77 20 126 -5 26 -17 43 -44 61 -33 23 -46 25
-138 25 -73 0 -103 -4 -106 -12z m210 -54 c12 -8 22 -22 22 -30 0 -8 4 -14 8
-14 14 0 10 -33 -8 -65 -19 -34 -43 -43 -120 -44 l-56 -1 0 85 0 85 66 0 c43
0 73 -5 88 -16z"/>
</g>
</svg>
